<svg width="129" height="50" viewBox="0 0 129 50" fill="none" xmlns="http://www.w3.org/2000/svg">
<path d="M31.444 38C31.42 38 31.408 37.976 31.408 37.928C31.408 37.88 31.42 37.856 31.444 37.856C31.724 37.856 31.932 37.836 32.068 37.796C32.204 37.756 32.296 37.676 32.344 37.556C32.392 37.436 32.416 37.26 32.416 37.028V31.472C32.416 31.24 32.392 31.068 32.344 30.956C32.304 30.836 32.22 30.756 32.092 30.716C31.964 30.668 31.768 30.644 31.504 30.644C31.48 30.644 31.468 30.62 31.468 30.572C31.468 30.524 31.48 30.5 31.504 30.5H36.496C36.576 30.5 36.616 30.536 36.616 30.608L36.64 32.168C36.64 32.184 36.62 32.196 36.58 32.204C36.54 32.204 36.512 32.192 36.496 32.168C36.408 31.712 36.224 31.372 35.944 31.148C35.664 30.924 35.296 30.812 34.84 30.812H34.348C34.052 30.812 33.844 30.864 33.724 30.968C33.612 31.072 33.556 31.244 33.556 31.484V36.98C33.556 37.22 33.588 37.404 33.652 37.532C33.716 37.652 33.844 37.736 34.036 37.784C34.228 37.832 34.516 37.856 34.9 37.856C34.916 37.856 34.924 37.88 34.924 37.928C34.924 37.976 34.916 38 34.9 38C34.628 38 34.336 37.996 34.024 37.988C33.712 37.98 33.356 37.976 32.956 37.976C32.676 37.976 32.404 37.98 32.14 37.988C31.876 37.996 31.644 38 31.444 38ZM35.896 35.42C35.896 35.092 35.78 34.84 35.548 34.664C35.324 34.488 34.98 34.4 34.516 34.4H33.016V34.088H34.54C34.996 34.088 35.332 34.012 35.548 33.86C35.772 33.7 35.884 33.476 35.884 33.188C35.884 33.172 35.908 33.164 35.956 33.164C36.004 33.164 36.028 33.172 36.028 33.188C36.028 33.452 36.024 33.656 36.016 33.8C36.016 33.944 36.016 34.092 36.016 34.244C36.016 34.436 36.02 34.628 36.028 34.82C36.036 35.004 36.04 35.204 36.04 35.42C36.04 35.444 36.016 35.456 35.968 35.456C35.92 35.456 35.896 35.444 35.896 35.42ZM41.4777 35.06L41.6337 34.76H44.9937L45.0777 35.06H41.4777ZM47.8617 37.856C47.8937 37.856 47.9097 37.88 47.9097 37.928C47.9097 37.976 47.8937 38 47.8617 38C47.6217 38 47.3737 37.992 47.1177 37.976C46.8697 37.96 46.6297 37.952 46.3977 37.952C46.1337 37.952 45.9017 37.96 45.7017 37.976C45.5097 37.992 45.2937 38 45.0537 38C45.0217 38 45.0057 37.976 45.0057 37.928C45.0057 37.88 45.0217 37.856 45.0537 37.856C45.4137 37.856 45.6297 37.792 45.7017 37.664C45.7737 37.536 45.7137 37.284 45.5217 36.908L43.0137 31.808L43.5057 31.004L41.1297 36.356C40.9217 36.844 40.9137 37.216 41.1057 37.472C41.3057 37.728 41.6417 37.856 42.1137 37.856C42.1537 37.856 42.1737 37.88 42.1737 37.928C42.1737 37.976 42.1537 38 42.1137 38C41.8737 38 41.6537 37.992 41.4537 37.976C41.2537 37.96 41.0017 37.952 40.6977 37.952C40.3937 37.952 40.1497 37.96 39.9657 37.976C39.7897 37.992 39.5697 38 39.3057 38C39.2737 38 39.2577 37.976 39.2577 37.928C39.2577 37.88 39.2737 37.856 39.3057 37.856C39.5217 37.856 39.7057 37.812 39.8577 37.724C40.0177 37.636 40.1737 37.476 40.3257 37.244C40.4777 37.004 40.6457 36.672 40.8297 36.248L43.4097 30.428C43.4257 30.404 43.4617 30.392 43.5177 30.392C43.5737 30.392 43.6057 30.404 43.6137 30.428L46.5537 36.356C46.7377 36.74 46.9017 37.044 47.0457 37.268C47.1897 37.484 47.3257 37.636 47.4537 37.724C47.5817 37.812 47.7177 37.856 47.8617 37.856ZM52.2289 31.784C52.2289 32.096 52.3089 32.368 52.4689 32.6C52.6289 32.824 52.8329 33.028 53.0809 33.212C53.3369 33.396 53.6049 33.576 53.8849 33.752C54.1889 33.936 54.4769 34.132 54.7489 34.34C55.0289 34.548 55.2569 34.788 55.4329 35.06C55.6169 35.324 55.7089 35.648 55.7089 36.032C55.7089 36.448 55.6009 36.816 55.3849 37.136C55.1689 37.448 54.8689 37.696 54.4849 37.88C54.1089 38.056 53.6649 38.144 53.1529 38.144C52.9369 38.144 52.7089 38.124 52.4689 38.084C52.2369 38.044 52.0169 37.988 51.8089 37.916C51.6089 37.844 51.4449 37.768 51.3169 37.688C51.2849 37.664 51.2569 37.636 51.2329 37.604C51.2169 37.572 51.2049 37.524 51.1969 37.46L51.1249 35.648C51.1169 35.608 51.1329 35.588 51.1729 35.588C51.2209 35.58 51.2489 35.592 51.2569 35.624C51.3529 35.864 51.4649 36.12 51.5929 36.392C51.7289 36.656 51.8849 36.9 52.0609 37.124C52.2369 37.348 52.4369 37.532 52.6609 37.676C52.8929 37.812 53.1569 37.88 53.4529 37.88C53.6609 37.88 53.8569 37.844 54.0409 37.772C54.2249 37.7 54.3769 37.576 54.4969 37.4C54.6169 37.216 54.6769 36.968 54.6769 36.656C54.6769 36.28 54.5889 35.96 54.4129 35.696C54.2449 35.424 54.0289 35.188 53.7649 34.988C53.5009 34.788 53.2249 34.6 52.9369 34.424C52.6569 34.24 52.3889 34.052 52.1329 33.86C51.8769 33.668 51.6649 33.448 51.4969 33.2C51.3369 32.944 51.2569 32.636 51.2569 32.276C51.2569 31.836 51.3769 31.476 51.6169 31.196C51.8569 30.916 52.1609 30.708 52.5289 30.572C52.9049 30.436 53.2889 30.368 53.6809 30.368C53.9449 30.368 54.2129 30.392 54.4849 30.44C54.7569 30.488 54.9889 30.556 55.1809 30.644C55.2529 30.668 55.3009 30.7 55.3249 30.74C55.3489 30.78 55.3609 30.824 55.3609 30.872L55.3849 32.492C55.3849 32.524 55.3649 32.544 55.3249 32.552C55.2929 32.56 55.2689 32.552 55.2529 32.528C55.2129 32.408 55.1529 32.244 55.0729 32.036C54.9929 31.82 54.8809 31.604 54.7369 31.388C54.5929 31.172 54.4129 30.988 54.1969 30.836C53.9809 30.684 53.7169 30.608 53.4049 30.608C53.1649 30.608 52.9569 30.656 52.7809 30.752C52.6049 30.848 52.4689 30.984 52.3729 31.16C52.2769 31.328 52.2289 31.536 52.2289 31.784ZM65.379 31.496C65.379 31.264 65.355 31.088 65.307 30.968C65.259 30.848 65.163 30.764 65.019 30.716C64.875 30.668 64.655 30.644 64.359 30.644C64.335 30.644 64.323 30.62 64.323 30.572C64.323 30.524 64.335 30.5 64.359 30.5C64.559 30.5 64.787 30.508 65.043 30.524C65.307 30.532 65.611 30.536 65.955 30.536C66.235 30.536 66.511 30.532 66.783 30.524C67.055 30.508 67.291 30.5 67.491 30.5C67.515 30.5 67.527 30.524 67.527 30.572C67.527 30.62 67.515 30.644 67.491 30.644C67.211 30.644 66.999 30.668 66.855 30.716C66.719 30.756 66.627 30.836 66.579 30.956C66.531 31.068 66.507 31.24 66.507 31.472V37.028C66.507 37.26 66.531 37.436 66.579 37.556C66.627 37.676 66.719 37.756 66.855 37.796C66.999 37.836 67.211 37.856 67.491 37.856C67.515 37.856 67.527 37.88 67.527 37.928C67.527 37.976 67.515 38 67.491 38C67.291 38 67.055 37.996 66.783 37.988C66.511 37.98 66.235 37.976 65.955 37.976C65.611 37.976 65.307 37.98 65.043 37.988C64.787 37.996 64.559 38 64.359 38C64.335 38 64.323 37.976 64.323 37.928C64.323 37.88 64.335 37.856 64.359 37.856C64.655 37.856 64.875 37.836 65.019 37.796C65.163 37.756 65.259 37.676 65.307 37.556C65.355 37.436 65.379 37.26 65.379 37.028V31.496ZM60.639 34.256V33.944H65.895V34.256H60.639ZM60.111 37.028V31.472C60.111 31.24 60.087 31.068 60.039 30.956C59.991 30.836 59.899 30.756 59.763 30.716C59.627 30.668 59.419 30.644 59.139 30.644C59.123 30.644 59.115 30.62 59.115 30.572C59.115 30.524 59.123 30.5 59.139 30.5C59.347 30.5 59.579 30.508 59.835 30.524C60.091 30.532 60.359 30.536 60.639 30.536C60.983 30.536 61.287 30.532 61.551 30.524C61.815 30.508 62.051 30.5 62.259 30.5C62.275 30.5 62.283 30.524 62.283 30.572C62.283 30.62 62.275 30.644 62.259 30.644C61.971 30.644 61.755 30.668 61.611 30.716C61.467 30.764 61.371 30.848 61.323 30.968C61.275 31.088 61.251 31.264 61.251 31.496V37.028C61.251 37.26 61.275 37.436 61.323 37.556C61.371 37.676 61.467 37.756 61.611 37.796C61.763 37.836 61.979 37.856 62.259 37.856C62.275 37.856 62.283 37.88 62.283 37.928C62.283 37.976 62.275 38 62.259 38C62.043 38 61.803 37.996 61.539 37.988C61.283 37.98 60.983 37.976 60.639 37.976C60.359 37.976 60.087 37.98 59.823 37.988C59.559 37.996 59.327 38 59.127 38C59.111 38 59.103 37.976 59.103 37.928C59.103 37.88 59.111 37.856 59.127 37.856C59.407 37.856 59.615 37.836 59.751 37.796C59.887 37.756 59.979 37.676 60.027 37.556C60.083 37.436 60.111 37.26 60.111 37.028ZM72.8876 37.028C72.8876 37.26 72.9076 37.436 72.9476 37.556C72.9956 37.676 73.0836 37.756 73.2116 37.796C73.3396 37.836 73.5356 37.856 73.7996 37.856C73.8236 37.856 73.8356 37.88 73.8356 37.928C73.8356 37.976 73.8236 38 73.7996 38C73.5996 38 73.3756 37.996 73.1276 37.988C72.8796 37.98 72.6036 37.976 72.2996 37.976C72.0196 37.976 71.7516 37.98 71.4956 37.988C71.2396 37.996 71.0116 38 70.8116 38C70.7876 38 70.7756 37.976 70.7756 37.928C70.7756 37.88 70.7876 37.856 70.8116 37.856C71.0676 37.856 71.2636 37.836 71.3996 37.796C71.5356 37.756 71.6236 37.676 71.6636 37.556C71.7116 37.436 71.7356 37.26 71.7356 37.028V31.472C71.7356 31.24 71.7116 31.068 71.6636 30.956C71.6236 30.836 71.5356 30.756 71.3996 30.716C71.2636 30.668 71.0676 30.644 70.8116 30.644C70.7876 30.644 70.7756 30.62 70.7756 30.572C70.7756 30.524 70.7876 30.5 70.8116 30.5C71.0116 30.5 71.2396 30.508 71.4956 30.524C71.7516 30.532 72.0196 30.536 72.2996 30.536C72.6036 30.536 72.8796 30.532 73.1276 30.524C73.3836 30.508 73.6076 30.5 73.7996 30.5C73.8236 30.5 73.8356 30.524 73.8356 30.572C73.8356 30.62 73.8236 30.644 73.7996 30.644C73.5436 30.644 73.3476 30.668 73.2116 30.716C73.0836 30.764 72.9956 30.848 72.9476 30.968C72.9076 31.088 72.8876 31.264 72.8876 31.496V37.028ZM81.142 38.144C80.566 38.144 80.042 38.044 79.57 37.844C79.106 37.636 78.706 37.352 78.37 36.992C78.042 36.632 77.786 36.22 77.602 35.756C77.426 35.284 77.338 34.784 77.338 34.256C77.338 33.608 77.462 33.04 77.71 32.552C77.966 32.064 78.302 31.66 78.718 31.34C79.134 31.012 79.59 30.768 80.086 30.608C80.582 30.448 81.074 30.368 81.562 30.368C82.154 30.368 82.682 30.476 83.146 30.692C83.618 30.9 84.018 31.184 84.346 31.544C84.674 31.904 84.922 32.312 85.09 32.768C85.266 33.224 85.354 33.692 85.354 34.172C85.354 34.732 85.242 35.252 85.018 35.732C84.794 36.212 84.486 36.632 84.094 36.992C83.71 37.352 83.262 37.636 82.75 37.844C82.246 38.044 81.71 38.144 81.142 38.144ZM81.55 37.856C82.03 37.856 82.458 37.728 82.834 37.472C83.218 37.216 83.518 36.84 83.734 36.344C83.958 35.84 84.07 35.232 84.07 34.52C84.07 33.776 83.95 33.116 83.71 32.54C83.47 31.964 83.126 31.512 82.678 31.184C82.23 30.848 81.694 30.68 81.07 30.68C80.294 30.68 79.69 30.96 79.258 31.52C78.834 32.072 78.622 32.84 78.622 33.824C78.622 34.4 78.694 34.936 78.838 35.432C78.982 35.92 79.182 36.348 79.438 36.716C79.702 37.084 80.01 37.368 80.362 37.568C80.722 37.76 81.118 37.856 81.55 37.856ZM89.8375 36.548V30.776L90.1615 30.8V36.548C90.1615 36.972 90.2455 37.296 90.4135 37.52C90.5815 37.744 90.8215 37.856 91.1335 37.856C91.1575 37.856 91.1695 37.88 91.1695 37.928C91.1695 37.976 91.1575 38 91.1335 38C90.9655 38 90.7895 37.996 90.6055 37.988C90.4295 37.98 90.2335 37.976 90.0175 37.976C89.7855 37.976 89.5615 37.98 89.3455 37.988C89.1375 37.996 88.9415 38 88.7575 38C88.7335 38 88.7215 37.976 88.7215 37.928C88.7215 37.88 88.7335 37.856 88.7575 37.856C89.1095 37.856 89.3775 37.744 89.5615 37.52C89.7455 37.296 89.8375 36.972 89.8375 36.548ZM95.9335 38.168C95.9335 38.192 95.9135 38.204 95.8735 38.204C95.8335 38.212 95.8055 38.212 95.7895 38.204L90.0175 31.484C89.7295 31.156 89.4815 30.936 89.2735 30.824C89.0735 30.704 88.8775 30.644 88.6855 30.644C88.6615 30.644 88.6495 30.62 88.6495 30.572C88.6495 30.524 88.6615 30.5 88.6855 30.5C88.8375 30.5 88.9935 30.504 89.1535 30.512C89.3135 30.52 89.4615 30.524 89.5975 30.524C89.8375 30.524 90.0535 30.52 90.2455 30.512C90.4455 30.504 90.5975 30.5 90.7015 30.5C90.8055 30.5 90.8815 30.548 90.9295 30.644C90.9775 30.732 91.0975 30.892 91.2895 31.124L95.8375 36.476L95.9335 38.168ZM95.9335 31.964V38.168L95.6095 37.808V31.964C95.6095 31.54 95.5255 31.216 95.3575 30.992C95.1975 30.76 94.9575 30.644 94.6375 30.644C94.6215 30.644 94.6135 30.62 94.6135 30.572C94.6135 30.524 94.6215 30.5 94.6375 30.5C94.8055 30.5 94.9815 30.508 95.1655 30.524C95.3495 30.532 95.5495 30.536 95.7655 30.536C95.9735 30.536 96.1775 30.532 96.3775 30.524C96.5775 30.508 96.7615 30.5 96.9295 30.5C96.9535 30.5 96.9655 30.524 96.9655 30.572C96.9655 30.62 96.9535 30.644 96.9295 30.644C96.6095 30.644 96.3615 30.76 96.1855 30.992C96.0175 31.216 95.9335 31.54 95.9335 31.964Z" fill="#9080FF"/>
<line x1="23" y1="24.75" x2="106.226" y2="24.75" stroke="#9080FF" stroke-opacity="0.8" stroke-width="0.5"/>
<path d="M40.408 11.312V18.64C40.408 18.896 40.4293 19.0933 40.472 19.232C40.5147 19.36 40.6 19.4453 40.728 19.488C40.8667 19.5307 41.064 19.552 41.32 19.552H41.864C42.696 19.552 43.416 19.328 44.024 18.88C44.632 18.432 45.0373 17.8347 45.24 17.088C45.2507 17.056 45.2827 17.0453 45.336 17.056C45.3893 17.0667 45.416 17.088 45.416 17.12C45.384 17.472 45.352 17.8987 45.32 18.4C45.288 18.8907 45.272 19.344 45.272 19.76C45.272 19.92 45.192 20 45.032 20H37.48C37.4587 20 37.448 19.968 37.448 19.904C37.448 19.84 37.4587 19.808 37.48 19.808C37.8107 19.808 38.056 19.7813 38.216 19.728C38.376 19.6747 38.4827 19.568 38.536 19.408C38.6 19.248 38.632 19.0133 38.632 18.704V11.296C38.632 10.9867 38.6 10.7573 38.536 10.608C38.4827 10.448 38.376 10.3413 38.216 10.288C38.056 10.224 37.8107 10.192 37.48 10.192C37.4587 10.192 37.448 10.16 37.448 10.096C37.448 10.032 37.4587 10 37.48 10C37.736 10 38.04 10.0107 38.392 10.032C38.7547 10.0427 39.128 10.048 39.512 10.048C39.9173 10.048 40.2907 10.0427 40.632 10.032C40.9733 10.0107 41.2773 10 41.544 10C41.576 10 41.592 10.032 41.592 10.096C41.592 10.16 41.576 10.192 41.544 10.192C41.224 10.192 40.9787 10.224 40.808 10.288C40.648 10.3413 40.5413 10.448 40.488 10.608C40.4347 10.768 40.408 11.0027 40.408 11.312ZM58.0548 12.048C58.0548 11.4827 57.9214 11.0347 57.6547 10.704C57.3987 10.3627 57.0361 10.192 56.5668 10.192C56.5454 10.192 56.5347 10.16 56.5347 10.096C56.5347 10.032 56.5454 10 56.5668 10C56.8334 10 57.1054 10.0107 57.3828 10.032C57.6708 10.0427 57.9801 10.048 58.3108 10.048C58.5988 10.048 58.8814 10.0427 59.1588 10.032C59.4361 10.0107 59.6921 10 59.9268 10C59.9481 10 59.9588 10.032 59.9588 10.096C59.9588 10.16 59.9481 10.192 59.9268 10.192C59.5001 10.192 59.1694 10.3627 58.9348 10.704C58.7108 11.0347 58.5988 11.4827 58.5988 12.048V16.496C58.5988 17.2533 58.4334 17.9147 58.1027 18.48C57.7721 19.0347 57.3081 19.4667 56.7108 19.776C56.1134 20.0747 55.4148 20.224 54.6147 20.224C53.8361 20.224 53.1374 20.0747 52.5187 19.776C51.9107 19.4773 51.4307 19.0507 51.0787 18.496C50.7374 17.9307 50.5667 17.2533 50.5667 16.464V11.296C50.5667 10.9867 50.5401 10.7573 50.4867 10.608C50.4334 10.448 50.3214 10.3413 50.1507 10.288C49.9907 10.224 49.7507 10.192 49.4307 10.192C49.3987 10.192 49.3827 10.16 49.3827 10.096C49.3827 10.032 49.3987 10 49.4307 10C49.7081 10 50.0174 10.0107 50.3587 10.032C50.7001 10.0427 51.0627 10.048 51.4467 10.048C51.8521 10.048 52.2254 10.0427 52.5668 10.032C52.9081 10.0107 53.2121 10 53.4788 10C53.5108 10 53.5268 10.032 53.5268 10.096C53.5268 10.16 53.5108 10.192 53.4788 10.192C53.1588 10.192 52.9188 10.224 52.7587 10.288C52.5987 10.352 52.4867 10.464 52.4227 10.624C52.3694 10.784 52.3428 11.0187 52.3428 11.328V15.904C52.3428 17.216 52.6041 18.1653 53.1267 18.752C53.6494 19.3387 54.3481 19.632 55.2228 19.632C56.1081 19.632 56.8014 19.3653 57.3028 18.832C57.8041 18.288 58.0548 17.5147 58.0548 16.512V12.048ZM65.4007 17.968V10.368L65.8807 10.4V17.968C65.8807 18.5333 65.9981 18.9813 66.2327 19.312C66.4674 19.6427 66.7927 19.808 67.2087 19.808C67.2301 19.808 67.2407 19.84 67.2407 19.904C67.2407 19.968 67.2301 20 67.2087 20C66.9741 20 66.7287 19.9947 66.4727 19.984C66.2274 19.9733 65.9554 19.968 65.6567 19.968C65.3367 19.968 65.0221 19.9733 64.7127 19.984C64.4141 19.9947 64.1367 20 63.8807 20C63.8487 20 63.8327 19.968 63.8327 19.904C63.8327 19.84 63.8487 19.808 63.8807 19.808C64.3501 19.808 64.7181 19.6427 64.9847 19.312C65.2621 18.9813 65.4007 18.5333 65.4007 17.968ZM73.5608 20.24C73.5608 20.272 73.5341 20.288 73.4808 20.288C73.4381 20.2987 73.4061 20.2987 73.3848 20.288L65.4967 11.312C65.1127 10.8747 64.7874 10.5813 64.5207 10.432C64.2541 10.272 63.9874 10.192 63.7207 10.192C63.6994 10.192 63.6887 10.16 63.6887 10.096C63.6887 10.032 63.6994 10 63.7207 10C63.9341 10 64.1527 10.0053 64.3767 10.016C64.6007 10.0267 64.8087 10.032 65.0007 10.032C65.3847 10.032 65.7314 10.0267 66.0407 10.016C66.3501 10.0053 66.5901 10 66.7607 10C66.8994 10 67.0007 10.064 67.0647 10.192C67.1394 10.3093 67.3047 10.5227 67.5608 10.832L73.4327 17.6L73.5608 20.24ZM73.5608 12.048V20.24L73.0968 19.76V12.048C73.0968 11.4827 72.9794 11.0347 72.7448 10.704C72.5101 10.3627 72.1847 10.192 71.7688 10.192C71.7474 10.192 71.7367 10.16 71.7367 10.096C71.7367 10.032 71.7474 10 71.7688 10C72.0034 10 72.2434 10.0107 72.4888 10.032C72.7448 10.0427 73.0221 10.048 73.3208 10.048C73.6088 10.048 73.8914 10.0427 74.1687 10.032C74.4461 10.0107 74.7021 10 74.9368 10C74.9581 10 74.9688 10.032 74.9688 10.096C74.9688 10.16 74.9581 10.192 74.9368 10.192C74.5101 10.192 74.1741 10.3627 73.9288 10.704C73.6834 11.0347 73.5608 11.4827 73.5608 12.048ZM86.0624 20H78.9904C78.9584 20 78.9424 19.968 78.9424 19.904C78.9424 19.84 78.9584 19.808 78.9904 19.808C79.321 19.808 79.5664 19.7813 79.7264 19.728C79.8864 19.6747 79.993 19.568 80.0464 19.408C80.0997 19.248 80.1264 19.0133 80.1264 18.704V11.296C80.1264 10.9867 80.0997 10.7573 80.0464 10.608C79.993 10.448 79.8864 10.3413 79.7264 10.288C79.5664 10.224 79.321 10.192 78.9904 10.192C78.9584 10.192 78.9424 10.16 78.9424 10.096C78.9424 10.032 78.9584 10 78.9904 10H85.7744C85.881 10 85.9344 10.048 85.9344 10.144L85.9664 12.272C85.9664 12.2933 85.9397 12.3093 85.8864 12.32C85.833 12.3307 85.7957 12.32 85.7744 12.288C85.6037 11.6587 85.3157 11.2 84.9104 10.912C84.505 10.6133 83.9717 10.464 83.3104 10.464H82.8304C82.617 10.464 82.441 10.496 82.3024 10.56C82.1637 10.6133 82.0624 10.704 81.9984 10.832C81.9344 10.96 81.9024 11.12 81.9024 11.312V18.64C81.9024 18.8427 81.929 19.0133 81.9824 19.152C82.0357 19.2907 82.1157 19.392 82.2224 19.456C82.329 19.52 82.4677 19.552 82.6384 19.552H83.1664C83.9984 19.552 84.665 19.3813 85.1664 19.04C85.6677 18.6987 86.0357 18.1707 86.2704 17.456C86.281 17.424 86.313 17.4187 86.3664 17.44C86.4304 17.4507 86.4624 17.4667 86.4624 17.488C86.4197 17.7973 86.3824 18.1653 86.3504 18.592C86.3184 19.008 86.3024 19.3973 86.3024 19.76C86.3024 19.92 86.2224 20 86.0624 20ZM85.1664 16.432C85.1664 15.9947 85.001 15.6533 84.6704 15.408C84.3397 15.152 83.8544 15.024 83.2144 15.024H81.0544V14.576H83.2304C83.8597 14.576 84.3344 14.4693 84.6544 14.256C84.985 14.032 85.1504 13.7333 85.1504 13.36C85.1504 13.328 85.177 13.312 85.2304 13.312C85.2944 13.312 85.3264 13.328 85.3264 13.36C85.3264 13.712 85.321 13.9893 85.3104 14.192C85.3104 14.384 85.3104 14.5867 85.3104 14.8C85.3104 15.0667 85.3157 15.328 85.3264 15.584C85.3477 15.84 85.3584 16.1227 85.3584 16.432C85.3584 16.4533 85.3264 16.464 85.2624 16.464C85.1984 16.464 85.1664 16.4533 85.1664 16.432Z" fill="#9080FF"/>
<rect x="0.5" y="0.5" width="128" height="49" stroke="#9080FF"/>
</svg>
