<svg width="129" height="50" viewBox="0 0 129 50" fill="none" xmlns="http://www.w3.org/2000/svg">
<path d="M31.444 38C31.42 38 31.408 37.976 31.408 37.928C31.408 37.88 31.42 37.856 31.444 37.856C31.732 37.856 31.94 37.836 32.068 37.796C32.204 37.756 32.296 37.68 32.344 37.568C32.392 37.448 32.416 37.268 32.416 37.028V31.472C32.416 31.232 32.392 31.056 32.344 30.944C32.304 30.832 32.22 30.756 32.092 30.716C31.964 30.668 31.768 30.644 31.504 30.644C31.48 30.644 31.468 30.62 31.468 30.572C31.468 30.524 31.48 30.5 31.504 30.5H36.496C36.576 30.5 36.616 30.536 36.616 30.608L36.64 32.168C36.64 32.184 36.616 32.196 36.568 32.204C36.528 32.204 36.504 32.192 36.496 32.168C36.304 31.264 35.752 30.812 34.84 30.812H34.348C34.06 30.812 33.856 30.864 33.736 30.968C33.616 31.072 33.556 31.244 33.556 31.484V36.98C33.556 37.236 33.588 37.424 33.652 37.544C33.716 37.656 33.84 37.736 34.024 37.784C34.216 37.832 34.508 37.856 34.9 37.856C34.916 37.856 34.924 37.88 34.924 37.928C34.924 37.976 34.916 38 34.9 38C34.572 38 34.316 37.996 34.132 37.988L32.956 37.976L32.08 37.988C31.928 37.996 31.716 38 31.444 38ZM35.896 35.42C35.896 34.74 35.436 34.4 34.516 34.4H33.016V34.088H34.54C35.436 34.088 35.884 33.788 35.884 33.188C35.884 33.172 35.908 33.164 35.956 33.164C36.004 33.164 36.028 33.172 36.028 33.188L36.016 34.244C36.016 34.492 36.02 34.676 36.028 34.796L36.04 35.42C36.04 35.444 36.016 35.456 35.968 35.456C35.92 35.456 35.896 35.444 35.896 35.42ZM41.6337 34.76H44.9937L45.0777 35.06H41.4777L41.6337 34.76ZM47.8617 37.856C47.8937 37.856 47.9097 37.88 47.9097 37.928C47.9097 37.976 47.8937 38 47.8617 38C47.7097 38 47.4657 37.992 47.1297 37.976C46.7937 37.96 46.5497 37.952 46.3977 37.952C46.1977 37.952 45.9617 37.96 45.6897 37.976C45.4177 37.992 45.2057 38 45.0537 38C45.0217 38 45.0057 37.976 45.0057 37.928C45.0057 37.88 45.0217 37.856 45.0537 37.856C45.2937 37.856 45.4657 37.832 45.5697 37.784C45.6737 37.728 45.7257 37.64 45.7257 37.52C45.7257 37.4 45.6577 37.196 45.5217 36.908L43.0137 31.808L43.5057 31.004L41.1297 36.356C41.0257 36.596 40.9737 36.812 40.9737 37.004C40.9737 37.284 41.0737 37.496 41.2737 37.64C41.4737 37.784 41.7537 37.856 42.1137 37.856C42.1537 37.856 42.1737 37.88 42.1737 37.928C42.1737 37.976 42.1537 38 42.1137 38C41.9697 38 41.7617 37.992 41.4897 37.976C41.1857 37.96 40.9217 37.952 40.6977 37.952C40.4817 37.952 40.2297 37.96 39.9417 37.976C39.6857 37.992 39.4737 38 39.3057 38C39.2657 38 39.2457 37.976 39.2457 37.928C39.2457 37.88 39.2657 37.856 39.3057 37.856C39.5297 37.856 39.7177 37.812 39.8697 37.724C40.0217 37.636 40.1697 37.48 40.3137 37.256C40.4577 37.024 40.6297 36.684 40.8297 36.236L43.4097 30.428C43.4257 30.404 43.4617 30.392 43.5177 30.392C43.5737 30.392 43.6057 30.404 43.6137 30.428L46.5537 36.356C46.8257 36.932 47.0537 37.328 47.2377 37.544C47.4297 37.752 47.6377 37.856 47.8617 37.856ZM52.2289 31.772C52.2289 32.068 52.3009 32.332 52.4449 32.564C52.5969 32.788 52.7809 32.984 52.9969 33.152C53.2129 33.312 53.5089 33.512 53.8849 33.752C54.2929 34.008 54.6129 34.228 54.8449 34.412C55.0849 34.596 55.2889 34.824 55.4569 35.096C55.6249 35.36 55.7089 35.672 55.7089 36.032C55.7089 36.44 55.6009 36.804 55.3849 37.124C55.1769 37.444 54.8769 37.696 54.4849 37.88C54.1009 38.056 53.6609 38.144 53.1649 38.144C52.8289 38.144 52.4809 38.1 52.1209 38.012C51.7689 37.924 51.5009 37.816 51.3169 37.688C51.2449 37.64 51.2049 37.564 51.1969 37.46L51.1249 35.648V35.636C51.1249 35.604 51.1449 35.588 51.1849 35.588C51.2249 35.58 51.2489 35.592 51.2569 35.624C51.5209 36.28 51.8209 36.82 52.1569 37.244C52.5009 37.668 52.9329 37.88 53.4529 37.88C53.8049 37.88 54.0969 37.788 54.3289 37.604C54.5609 37.412 54.6769 37.096 54.6769 36.656C54.6769 36.304 54.5969 35.996 54.4369 35.732C54.2849 35.468 54.0929 35.248 53.8609 35.072C53.6369 34.896 53.3289 34.68 52.9369 34.424C52.5529 34.176 52.2529 33.968 52.0369 33.8C51.8209 33.624 51.6369 33.412 51.4849 33.164C51.3329 32.908 51.2569 32.612 51.2569 32.276C51.2569 31.86 51.3729 31.508 51.6049 31.22C51.8369 30.932 52.1369 30.72 52.5049 30.584C52.8809 30.44 53.2729 30.368 53.6809 30.368C53.9449 30.368 54.2129 30.396 54.4849 30.452C54.7569 30.5 54.9889 30.564 55.1809 30.644C55.3009 30.692 55.3609 30.768 55.3609 30.872L55.3849 32.492C55.3849 32.524 55.3649 32.544 55.3249 32.552C55.2929 32.56 55.2689 32.552 55.2529 32.528C55.0929 32.04 54.8769 31.6 54.6049 31.208C54.3409 30.808 53.9409 30.608 53.4049 30.608C53.0449 30.608 52.7569 30.716 52.5409 30.932C52.3329 31.14 52.2289 31.42 52.2289 31.772ZM65.379 31.496C65.379 31.256 65.355 31.08 65.307 30.968C65.259 30.848 65.163 30.764 65.019 30.716C64.875 30.668 64.655 30.644 64.359 30.644C64.335 30.644 64.323 30.62 64.323 30.572C64.323 30.524 64.335 30.5 64.359 30.5L64.935 30.512C65.319 30.528 65.659 30.536 65.955 30.536C66.171 30.536 66.463 30.528 66.831 30.512L67.491 30.5C67.515 30.5 67.527 30.524 67.527 30.572C67.527 30.62 67.515 30.644 67.491 30.644C67.203 30.644 66.991 30.668 66.855 30.716C66.719 30.756 66.627 30.832 66.579 30.944C66.531 31.056 66.507 31.232 66.507 31.472V37.028C66.507 37.268 66.531 37.448 66.579 37.568C66.627 37.68 66.719 37.756 66.855 37.796C66.991 37.836 67.203 37.856 67.491 37.856C67.515 37.856 67.527 37.88 67.527 37.928C67.527 37.976 67.515 38 67.491 38C67.219 38 66.999 37.996 66.831 37.988L65.955 37.976L64.935 37.988C64.791 37.996 64.599 38 64.359 38C64.335 38 64.323 37.976 64.323 37.928C64.323 37.88 64.335 37.856 64.359 37.856C64.663 37.856 64.883 37.836 65.019 37.796C65.163 37.756 65.259 37.68 65.307 37.568C65.355 37.448 65.379 37.268 65.379 37.028V31.496ZM60.639 33.944H65.895V34.256H60.639V33.944ZM60.111 31.472C60.111 31.232 60.087 31.056 60.039 30.944C59.991 30.832 59.899 30.756 59.763 30.716C59.627 30.668 59.419 30.644 59.139 30.644C59.123 30.644 59.115 30.62 59.115 30.572C59.115 30.524 59.123 30.5 59.139 30.5L59.775 30.512C60.143 30.528 60.431 30.536 60.639 30.536C60.919 30.536 61.251 30.528 61.635 30.512L62.259 30.5C62.275 30.5 62.283 30.524 62.283 30.572C62.283 30.62 62.275 30.644 62.259 30.644C61.971 30.644 61.755 30.668 61.611 30.716C61.475 30.764 61.379 30.848 61.323 30.968C61.275 31.08 61.251 31.256 61.251 31.496V37.028C61.251 37.268 61.275 37.448 61.323 37.568C61.371 37.68 61.463 37.756 61.599 37.796C61.743 37.836 61.963 37.856 62.259 37.856C62.275 37.856 62.283 37.88 62.283 37.928C62.283 37.976 62.275 38 62.259 38C61.987 38 61.775 37.996 61.623 37.988L60.639 37.976L59.763 37.988C59.611 37.996 59.399 38 59.127 38C59.111 38 59.103 37.976 59.103 37.928C59.103 37.88 59.111 37.856 59.127 37.856C59.415 37.856 59.627 37.836 59.763 37.796C59.899 37.756 59.991 37.68 60.039 37.568C60.087 37.448 60.111 37.268 60.111 37.028V31.472ZM72.8876 37.028C72.8876 37.276 72.9076 37.456 72.9476 37.568C72.9956 37.68 73.0796 37.756 73.1996 37.796C73.3276 37.836 73.5276 37.856 73.7996 37.856C73.8236 37.856 73.8356 37.88 73.8356 37.928C73.8356 37.976 73.8236 38 73.7996 38C73.5436 38 73.3396 37.996 73.1876 37.988L72.2996 37.976L71.4356 37.988C71.2836 37.996 71.0756 38 70.8116 38C70.7876 38 70.7756 37.976 70.7756 37.928C70.7756 37.88 70.7876 37.856 70.8116 37.856C71.0836 37.856 71.2796 37.836 71.3996 37.796C71.5276 37.756 71.6156 37.68 71.6636 37.568C71.7116 37.448 71.7356 37.268 71.7356 37.028V31.472C71.7356 31.232 71.7116 31.056 71.6636 30.944C71.6156 30.832 71.5276 30.756 71.3996 30.716C71.2796 30.668 71.0836 30.644 70.8116 30.644C70.7876 30.644 70.7756 30.62 70.7756 30.572C70.7756 30.524 70.7876 30.5 70.8116 30.5L71.4356 30.512C71.7876 30.528 72.0756 30.536 72.2996 30.536C72.5476 30.536 72.8476 30.528 73.1996 30.512L73.7996 30.5C73.8236 30.5 73.8356 30.524 73.8356 30.572C73.8356 30.62 73.8236 30.644 73.7996 30.644C73.5356 30.644 73.3396 30.668 73.2116 30.716C73.0836 30.764 72.9956 30.848 72.9476 30.968C72.9076 31.08 72.8876 31.256 72.8876 31.496V37.028ZM81.142 38.144C80.398 38.144 79.734 37.972 79.15 37.628C78.574 37.276 78.126 36.804 77.806 36.212C77.494 35.612 77.338 34.96 77.338 34.256C77.338 33.432 77.546 32.728 77.962 32.144C78.378 31.552 78.91 31.108 79.558 30.812C80.214 30.516 80.882 30.368 81.562 30.368C82.322 30.368 82.99 30.548 83.566 30.908C84.142 31.26 84.582 31.728 84.886 32.312C85.198 32.896 85.354 33.516 85.354 34.172C85.354 34.9 85.162 35.568 84.778 36.176C84.394 36.784 83.878 37.264 83.23 37.616C82.59 37.968 81.894 38.144 81.142 38.144ZM81.55 37.856C82.03 37.856 82.458 37.728 82.834 37.472C83.218 37.208 83.518 36.824 83.734 36.32C83.958 35.816 84.07 35.216 84.07 34.52C84.07 33.776 83.946 33.116 83.698 32.54C83.458 31.956 83.11 31.5 82.654 31.172C82.206 30.844 81.678 30.68 81.07 30.68C80.286 30.68 79.682 30.96 79.258 31.52C78.834 32.072 78.622 32.84 78.622 33.824C78.622 34.592 78.746 35.284 78.994 35.9C79.242 36.508 79.59 36.988 80.038 37.34C80.486 37.684 80.99 37.856 81.55 37.856ZM89.8375 30.776L90.1615 30.8V36.548C90.1615 36.972 90.2415 37.296 90.4015 37.52C90.5695 37.744 90.8135 37.856 91.1335 37.856C91.1575 37.856 91.1695 37.88 91.1695 37.928C91.1695 37.976 91.1575 38 91.1335 38C90.9255 38 90.7655 37.996 90.6535 37.988L90.0175 37.976L89.3095 37.988C89.1815 37.996 88.9975 38 88.7575 38C88.7335 38 88.7215 37.976 88.7215 37.928C88.7215 37.88 88.7335 37.856 88.7575 37.856C89.1015 37.856 89.3655 37.744 89.5495 37.52C89.7415 37.296 89.8375 36.972 89.8375 36.548V30.776ZM95.9335 38.168C95.9335 38.192 95.9135 38.208 95.8735 38.216C95.8335 38.224 95.8055 38.22 95.7895 38.204L90.0175 31.484C89.7455 31.172 89.5055 30.956 89.2975 30.836C89.0895 30.708 88.8855 30.644 88.6855 30.644C88.6615 30.644 88.6495 30.62 88.6495 30.572C88.6495 30.524 88.6615 30.5 88.6855 30.5L89.1655 30.512C89.2615 30.52 89.4055 30.524 89.5975 30.524L90.3655 30.512C90.4615 30.504 90.5735 30.5 90.7015 30.5C90.7655 30.5 90.8135 30.516 90.8455 30.548C90.8775 30.58 90.9255 30.644 90.9895 30.74C91.1255 30.924 91.2255 31.052 91.2895 31.124L95.8375 36.476L95.9335 38.168ZM95.9335 38.168L95.6095 37.808V31.964C95.6095 31.54 95.5255 31.216 95.3575 30.992C95.1975 30.76 94.9575 30.644 94.6375 30.644C94.6215 30.644 94.6135 30.62 94.6135 30.572C94.6135 30.524 94.6215 30.5 94.6375 30.5L95.1295 30.512C95.3855 30.528 95.5975 30.536 95.7655 30.536C95.9175 30.536 96.1375 30.528 96.4255 30.512L96.9295 30.5C96.9535 30.5 96.9655 30.524 96.9655 30.572C96.9655 30.62 96.9535 30.644 96.9295 30.644C96.6095 30.644 96.3615 30.76 96.1855 30.992C96.0175 31.216 95.9335 31.54 95.9335 31.964V38.168Z" fill="#1A1A1F"/>
<line x1="23" y1="24.75" x2="106.226" y2="24.75" stroke="#1A1A1F" stroke-opacity="0.8" stroke-width="0.5"/>
<path d="M40.408 18.64C40.408 18.9173 40.4293 19.12 40.472 19.248C40.5147 19.3653 40.5947 19.4453 40.712 19.488C40.84 19.5307 41.0427 19.552 41.32 19.552H41.864C42.696 19.552 43.416 19.3333 44.024 18.896C44.632 18.448 45.0373 17.8453 45.24 17.088C45.24 17.0667 45.2613 17.056 45.304 17.056C45.3253 17.056 45.3467 17.0667 45.368 17.088C45.4 17.0987 45.416 17.1093 45.416 17.12C45.32 18.176 45.272 19.056 45.272 19.76C45.272 19.8453 45.2507 19.9093 45.208 19.952C45.176 19.984 45.1173 20 45.032 20H37.48C37.4587 20 37.448 19.968 37.448 19.904C37.448 19.84 37.4587 19.808 37.48 19.808C37.8213 19.808 38.0667 19.7813 38.216 19.728C38.376 19.6747 38.4827 19.5733 38.536 19.424C38.6 19.264 38.632 19.024 38.632 18.704V11.296C38.632 10.976 38.6 10.7413 38.536 10.592C38.4827 10.4427 38.376 10.3413 38.216 10.288C38.056 10.224 37.8107 10.192 37.48 10.192C37.4587 10.192 37.448 10.16 37.448 10.096C37.448 10.032 37.4587 10 37.48 10L38.296 10.016C38.7867 10.0373 39.192 10.048 39.512 10.048C39.832 10.048 40.2373 10.0373 40.728 10.016L41.544 10C41.576 10 41.592 10.032 41.592 10.096C41.592 10.16 41.576 10.192 41.544 10.192C41.2133 10.192 40.968 10.224 40.808 10.288C40.648 10.3413 40.5413 10.448 40.488 10.608C40.4347 10.7573 40.408 10.992 40.408 11.312V18.64ZM58.0548 12.048C58.0548 11.472 57.9214 11.0187 57.6547 10.688C57.3987 10.3573 57.0361 10.192 56.5668 10.192C56.5454 10.192 56.5347 10.16 56.5347 10.096C56.5347 10.032 56.5454 10 56.5668 10L57.3348 10.016C57.7401 10.0373 58.0654 10.048 58.3108 10.048C58.5134 10.048 58.8067 10.0373 59.1908 10.016L59.9268 10C59.9481 10 59.9588 10.032 59.9588 10.096C59.9588 10.16 59.9481 10.192 59.9268 10.192C59.5108 10.192 59.1854 10.3573 58.9508 10.688C58.7161 11.0187 58.5988 11.472 58.5988 12.048V16.496C58.5988 17.2427 58.4334 17.8987 58.1027 18.464C57.7721 19.0293 57.3028 19.4667 56.6948 19.776C56.0974 20.0747 55.4041 20.224 54.6147 20.224C53.8254 20.224 53.1267 20.0747 52.5187 19.776C51.9107 19.4773 51.4307 19.0453 51.0787 18.48C50.7374 17.904 50.5667 17.232 50.5667 16.464V11.296C50.5667 10.976 50.5347 10.7413 50.4707 10.592C50.4174 10.4427 50.3107 10.3413 50.1507 10.288C50.0014 10.224 49.7614 10.192 49.4307 10.192C49.3987 10.192 49.3827 10.16 49.3827 10.096C49.3827 10.032 49.3987 10 49.4307 10L50.2787 10.016C50.7694 10.0373 51.1587 10.048 51.4467 10.048C51.7667 10.048 52.1721 10.0373 52.6628 10.016L53.4788 10C53.5108 10 53.5268 10.032 53.5268 10.096C53.5268 10.16 53.5108 10.192 53.4788 10.192C53.1481 10.192 52.9027 10.224 52.7427 10.288C52.5934 10.352 52.4867 10.464 52.4227 10.624C52.3694 10.7733 52.3428 11.008 52.3428 11.328V15.904C52.3428 17.1733 52.5934 18.112 53.0947 18.72C53.5961 19.328 54.3054 19.632 55.2228 19.632C56.1081 19.632 56.8014 19.3653 57.3028 18.832C57.8041 18.288 58.0548 17.5147 58.0548 16.512V12.048ZM65.4007 10.368L65.8807 10.4V17.968C65.8807 18.5333 65.9981 18.9813 66.2327 19.312C66.4674 19.6427 66.7927 19.808 67.2087 19.808C67.2301 19.808 67.2407 19.84 67.2407 19.904C67.2407 19.968 67.2301 20 67.2087 20C66.9101 20 66.6807 19.9947 66.5207 19.984L65.6567 19.968L64.6647 19.984C64.4834 19.9947 64.2221 20 63.8807 20C63.8487 20 63.8327 19.968 63.8327 19.904C63.8327 19.84 63.8487 19.808 63.8807 19.808C64.3501 19.808 64.7181 19.6427 64.9847 19.312C65.2621 18.9813 65.4007 18.5333 65.4007 17.968V10.368ZM73.5608 20.24C73.5608 20.272 73.5341 20.2933 73.4808 20.304C73.4381 20.3147 73.4061 20.3093 73.3848 20.288L65.4967 11.312C65.1234 10.8853 64.8034 10.592 64.5367 10.432C64.2701 10.272 63.9981 10.192 63.7207 10.192C63.6994 10.192 63.6887 10.16 63.6887 10.096C63.6887 10.032 63.6994 10 63.7207 10L64.3927 10.016C64.5314 10.0267 64.7341 10.032 65.0007 10.032L66.2167 10.016C66.3661 10.0053 66.5474 10 66.7607 10C66.8461 10 66.9101 10.0213 66.9527 10.064C66.9954 10.1067 67.0701 10.1973 67.1767 10.336C67.3581 10.5813 67.4861 10.7467 67.5608 10.832L73.4327 17.6L73.5608 20.24ZM73.5608 20.24L73.0968 19.76V12.048C73.0968 11.472 72.9794 11.0187 72.7448 10.688C72.5101 10.3573 72.1847 10.192 71.7688 10.192C71.7474 10.192 71.7367 10.16 71.7367 10.096C71.7367 10.032 71.7474 10 71.7688 10L72.4567 10.016C72.7981 10.0373 73.0861 10.048 73.3208 10.048C73.5341 10.048 73.8328 10.0373 74.2168 10.016L74.9368 10C74.9581 10 74.9688 10.032 74.9688 10.096C74.9688 10.16 74.9581 10.192 74.9368 10.192C74.5101 10.192 74.1741 10.3627 73.9288 10.704C73.6834 11.0347 73.5608 11.4827 73.5608 12.048V20.24ZM78.9904 20C78.9584 20 78.9424 19.968 78.9424 19.904C78.9424 19.84 78.9584 19.808 78.9904 19.808C79.3317 19.808 79.577 19.7813 79.7264 19.728C79.8864 19.6747 79.993 19.5733 80.0464 19.424C80.0997 19.264 80.1264 19.024 80.1264 18.704V11.296C80.1264 10.976 80.0997 10.7413 80.0464 10.592C79.993 10.4427 79.8864 10.3413 79.7264 10.288C79.5664 10.224 79.321 10.192 78.9904 10.192C78.9584 10.192 78.9424 10.16 78.9424 10.096C78.9424 10.032 78.9584 10 78.9904 10H85.7744C85.881 10 85.9344 10.048 85.9344 10.144L85.9664 12.272C85.9664 12.2933 85.9344 12.3093 85.8704 12.32C85.817 12.3307 85.785 12.32 85.7744 12.288C85.6037 11.6693 85.3157 11.2107 84.9104 10.912C84.505 10.6133 83.9717 10.464 83.3104 10.464H82.8304C82.5104 10.464 82.2757 10.5333 82.1264 10.672C81.977 10.8107 81.9024 11.024 81.9024 11.312V18.64C81.9024 18.9493 81.961 19.1787 82.0784 19.328C82.1957 19.4773 82.3824 19.552 82.6384 19.552H83.1664C83.9984 19.552 84.665 19.3813 85.1664 19.04C85.6677 18.6987 86.0357 18.1707 86.2704 17.456C86.2704 17.4347 86.2917 17.424 86.3344 17.424C86.3664 17.424 86.393 17.4347 86.4144 17.456C86.4464 17.4667 86.4624 17.4773 86.4624 17.488C86.3557 18.32 86.3024 19.0773 86.3024 19.76C86.3024 19.8453 86.2864 19.9093 86.2544 19.952C86.2224 19.984 86.1584 20 86.0624 20H78.9904ZM85.1664 16.432C85.1664 15.9947 84.9957 15.6533 84.6544 15.408C84.3237 15.152 83.8437 15.024 83.2144 15.024H81.0544V14.576H83.2304C83.849 14.576 84.3237 14.4693 84.6544 14.256C84.985 14.0427 85.1504 13.744 85.1504 13.36C85.1504 13.328 85.177 13.312 85.2304 13.312C85.2944 13.312 85.3264 13.328 85.3264 13.36L85.3104 14.8L85.3264 15.568C85.3477 15.9307 85.3584 16.2187 85.3584 16.432C85.3584 16.4533 85.3264 16.464 85.2624 16.464C85.1984 16.464 85.1664 16.4533 85.1664 16.432Z" fill="#1A1A1F"/>
<rect x="0.5" y="0.5" width="128" height="49" stroke="#1A1A1F"/>
</svg>
